<svg width="816" height="361" viewBox="0 0 816 361" fill="none" xmlns="http://www.w3.org/2000/svg">
<path opacity="0.4" d="M584.1 180.674C594.8 124.974 586.5 54.874 494.5 9.37403C429.6 -20.526 348.9 22.174 357.8 122.174C330.6 122.674 307.8 131.674 293.4 155.374C223.4 103.874 104.5 144.574 131.4 281.374C51.6 279.074 13.9 304.574 0.199951 361.374H494.5L815.5 361.074C790.6 263.774 701.6 188.974 584.1 180.674Z" fill="#7196FF"/>
<path opacity="0.5" d="M289.4 206.9C292.2 160.7 325.3 131 357.8 122.2C330.6 122.7 307.8 131.7 293.4 155.4C255.7 127.7 203.9 126.7 168.2 153C202.1 130.3 267.8 168.9 289.4 206.9Z" fill="#83A4FF"/>
</svg>
