
<svg xmlns="http://www.w3.org/2000/svg" width="70" height="100" viewBox="0 0 70 100">
  <g id="Layer_37" data-name="Layer 37">
    <path d="M7.3,88.7l3.1-2.4a.4.4,0,0,0-.1-.7L6.5,84.5A2.5,2.5,0,0,0,3.3,87h0A2.4,2.4,0,0,0,7.3,88.7Z" style="fill: #7196ff"/>
    <path d="M39,68.6h-.1a21.7,21.7,0,0,1-10.1,8.4,2.5,2.5,0,0,1-3.2-1.3,2.4,2.4,0,0,1,1.3-3.2A16.5,16.5,0,0,0,34.8,66a2.5,2.5,0,0,1,3.5-.7A2.6,2.6,0,0,1,39,68.6Z" style="fill: #7196ff"/>
    <path d="M16.9,52.4c2.4,1.8,3.3,1.8,3.3,1.8l-7.8.9a2.7,2.7,0,0,1,.5-2.1A2.9,2.9,0,0,1,16.9,52.4Z" style="fill: #21cda5"/>
    <path d="M26.1,53.4l-8.8,1.1c.1,0,1.4-.2,4-3.9a2.8,2.8,0,0,1,3.9-.7A2.6,2.6,0,0,1,26.1,53.4Z" style="fill: #21cda5"/>
    <path d="M11,99.8a2.8,2.8,0,0,1-2.1-3.4c.7-2.6,1.6-6.5,2.2-9.1a2.8,2.8,0,0,1,3.4-2h0a2.7,2.7,0,0,1,2.1,3.4c-.6,2.6-1.6,6.4-2.2,9A2.8,2.8,0,0,1,11,99.8Z" style="fill: #7196ff"/>
    <path d="M21.6,99.9a2.9,2.9,0,0,1-2.2-3.4c.5-2.6,1.4-6.5,1.9-9.1a2.8,2.8,0,0,1,3.3-2.2h0a2.8,2.8,0,0,1,2.2,3.3c-.5,2.6-1.4,6.6-1.9,9.2a2.8,2.8,0,0,1-3.3,2.2Z" style="fill: #7196ff"/>
    <path d="M30.4,86.4h0a7.3,7.3,0,0,1-6.9,4.2l-9-.4A7.9,7.9,0,0,1,7.4,85h0a8.7,8.7,0,0,1-.2-4.8l2.3-8,18.6-2.7,2.8,12.2A7,7,0,0,1,30.4,86.4Z" style="fill: #88a7ff"/>
    <path d="M.2,85.1v-.2a21.4,21.4,0,0,1,8.8-9.6,2.4,2.4,0,0,1,3.4.8,2.4,2.4,0,0,1-.8,3.3,16.4,16.4,0,0,0-7,7.7,2.5,2.5,0,0,1-3.3,1.1A2.4,2.4,0,0,1,.2,85.1Z" style="fill: #88a7ff"/>
    <path d="M9,73.9s10.3,6.1,20-.6l-.9-3.8L9.5,72.2Z" style="fill: #7196ff"/>
    <rect x="4.1" y="54.4" width="29.3" height="18.83" rx="5.3" transform="translate(45 124.9) rotate(173.1)" style="fill: #88a7ff"/>
    <circle cx="12.4" cy="62.6" r="1.6" style="fill: #202225"/>
    <circle cx="29.5" cy="60.5" r="1.6" style="fill: #202225"/>
    <path d="M19.6,58.4h5.7a4.2,4.2,0,0,1,4.2,4.2v4.1a1.7,1.7,0,0,1-1.7,1.7H17.7A1.7,1.7,0,0,1,16,66.7V62.1a3.6,3.6,0,0,1,3.6-3.6Z" transform="translate(52.9 123.7) rotate(173.1)" style="fill: #b8cdff"/>
    <rect x="25.7" y="64" width="2.2" height="1.47" rx="0.7" transform="translate(-7.6 3.7) rotate(-6.9)" style="fill: #7fa0ff"/>
    <rect x="20.9" y="64.5" width="2.8" height="1.47" rx="0.7" transform="translate(-7.7 3.2) rotate(-6.9)" style="fill: #7fa0ff"/>
    <path d="M.7,61.4H5.4a2.4,2.4,0,0,1,2.4,2.4v5.3a2.4,2.4,0,0,1-2.4,2.4H.7a0,0,0,0,1,0,0v-10a0,0,0,0,1,0,0Z" transform="translate(16.3 131.9) rotate(173.1)" style="fill: #88a7ff"/>
    <path d="M3.4,63.1H5a1.2,1.2,0,0,1,1.2,1.2v4.1A1.2,1.2,0,0,1,5,69.6H3.4a0,0,0,0,1,0,0V63.1a0,0,0,0,1,0,0Z" transform="translate(17.5 131.6) rotate(173.1)" style="fill: #b8cdff"/>
    <path d="M38.7,78.6l-.4-.2a53.4,53.4,0,0,1-2.6-11.1c-1.4-13.4-1.8-24,.5-35.8,0-.2.2-.4.4-.3s.4.2.3.4c-2.3,11.7-1.9,22.3-.4,35.6A46.4,46.4,0,0,0,39,78.1a.4.4,0,0,1-.2.5Z" style="fill: #fff"/>
    <path d="M35.7,67.3c-.4-3.2-.7-7.1-1-11.1-.7-9-1.5-19.1-3.9-23.2a.3.3,0,0,1,.1-.5.4.4,0,0,1,.5.2c2.5,4.2,3.3,13.9,4,23.4v.2c.6-8.7,3-16.6,6.8-21.6a.3.3,0,0,1,.5-.1c.2.1.2.3.1.5C37.6,42,35,54.9,36.5,67.2Z" style="fill: #fff"/>
    <circle cx="38.7" cy="14.8" r="14.9" style="fill: #1249cc"/>
    <path d="M34.1,7.4a1.9,1.9,0,0,1-1.8-1.1,2,2,0,0,1,.9-2.7,13.2,13.2,0,0,1,7.1-1.1A1.9,1.9,0,0,1,42,4.7a1.9,1.9,0,0,1-2.2,1.7,8.7,8.7,0,0,0-4.8.8A1.5,1.5,0,0,1,34.1,7.4Z" style="fill: #346aed"/>
    <path d="M36.9,29.1l-2,2.6a.5.5,0,0,0,.4.9l2.2.3a.5.5,0,0,0,.6-.8Z" style="fill: #1249cc"/>
    <circle cx="21.2" cy="19.4" r="14.9" style="fill: #fec9aa"/>
    <path d="M12,15.7a2,2,0,0,1-1.1-.3,1.9,1.9,0,0,1-.6-2.7,11.3,11.3,0,0,1,3.3-3.6,12.4,12.4,0,0,1,5.1-2.3,2.1,2.1,0,0,1,2.4,1.6,2,2,0,0,1-1.6,2.3A8.6,8.6,0,0,0,16,12.3a7.8,7.8,0,0,0-2.3,2.5A2.1,2.1,0,0,1,12,15.7Z" style="fill: #feece2"/>
    <path d="M29.6,30.7l.4,3.5a.5.5,0,0,0,.9.4l2-1.4a.7.7,0,0,0-.1-1.1Z" style="fill: #fec9aa"/>
    <circle cx="55.1" cy="23.7" r="14.9" style="fill: #ff85ab"/>
    <path d="M45,24h-.3a1.9,1.9,0,0,1-1.6-2.3,11.5,11.5,0,0,1,3.9-7,11.8,11.8,0,0,1,5.3-2.8,2,2,0,0,1,2.4,1.5,2,2,0,0,1-1.5,2.4,9,9,0,0,0-3.6,1.9A7.9,7.9,0,0,0,47,22.3,2,2,0,0,1,45,24Z" style="fill: #ffbfd3"/>
    <path d="M44.4,33.2l-1.1,3.1a.6.6,0,0,1-1,.3l-1.5-1.7a.6.6,0,0,1,.3-1Z" style="fill: #ff85ab"/>
    <rect x="34.5" y="65.7" width="3.1" height="1.87" rx="0.9" transform="translate(-21 16.7) rotate(-20.4)" style="fill: #7196ff"/>
  </g>
</svg>
