<svg width="223" height="95" viewBox="0 0 223 95" fill="none" xmlns="http://www.w3.org/2000/svg">
<path d="M150.6 45.9L138.1 54.4L138.2 54.8L145 76L171.7 86.9L194.1 83.7L222.2 62.5V49.6L150.6 45.9Z" fill="#385199"/>
<path d="M145 76.002L171.7 86.902L194.1 83.702L205.6 75.002L180.1 62.102L145 76.002Z" fill="#354D91"/>
<path d="M139.9 60.1L166.8 48.7L150.6 45.9L138.1 54.4L138.2 54.8L139.9 60.1Z" fill="#3C56A3"/>
<path d="M171.7 47.201V26.401H181.5V6.20117H189.4V15.9012H200.2V35.501L204.6 31.001L210.3 37.601V49.001L171.7 47.201Z" fill="#7BA2FF"/>
<path d="M186.3 40.201C186.99 40.201 187.65 40.475 188.14 40.963C188.63 41.45 188.9 42.112 188.9 42.801V46.801H183.8V42.801C183.8 42.129 184.06 41.482 184.53 40.997C184.99 40.512 185.63 40.227 186.3 40.201Z" fill="#417BD4"/>
<path d="M149.8 46.5L222.2 55.8V49.6L216.9 47.5L153.7 44.4L149.8 46.5Z" fill="#339BBE"/>
<path d="M204.6 31L198.5 37.3L210.3 37.6L204.6 31Z" fill="#558EE6"/>
<path d="M184.8 25.301L181.7 29.001H188.1L184.8 25.301Z" fill="#558EE6"/>
<path d="M190.2 15.9015H199C197.2 13.5015 194.3 11.0015 190.2 15.9015Z" fill="#558EE6"/>
<path d="M182.2 6.20002H188.7C187.2 0.800022 183.5 1.10002 182.2 6.20002Z" fill="#558EE6"/>
<path d="M185.4 2.50163C186.06 2.50163 186.6 1.96432 186.6 1.30162C186.6 0.63882 186.06 0.101624 185.4 0.101624C184.74 0.101624 184.2 0.63882 184.2 1.30162C184.2 1.96432 184.74 2.50163 185.4 2.50163Z" fill="#558EE6"/>
<path d="M198.1 18.9004H197V20.35H198.1V18.9004Z" fill="#558EE6"/>
<path d="M192.4 18.9004H191.3V20.35H192.4V18.9004Z" fill="#558EE6"/>
<path d="M196 24.301H194.9V25.751H196V24.301Z" fill="#558EE6"/>
<path d="M193.1 28.701H192V30.151H193.1V28.701Z" fill="#558EE6"/>
<path d="M200.9 39.9H199.8V41.35H200.9V39.9Z" fill="#558EE6"/>
<path d="M188.2 9.5H187.1V10.95H188.2V9.5Z" fill="#558EE6"/>
<path d="M185.5 13.1016H184.4V14.5516H185.5V13.1016Z" fill="#558EE6"/>
<path d="M175.7 31.5H174.6V32.95H175.7V31.5Z" fill="#558EE6"/>
<path d="M181.7 35.201H180.6V36.651H181.7V35.201Z" fill="#558EE6"/>
<path d="M174.4 24.701L172.8 26.401H181.5V24.701H174.4Z" fill="#558EE6"/>
<g opacity="0.5">
<path opacity="0.5" d="M6.7 68.3L10.1 66.8V66.6L6.7 65.2L5.2 61.9H5.00005L3.50005 65.2L0.2 66.6C0.1 66.7 0.1 66.8 0.2 66.8L3.50005 68.3L5.00005 71.7H5.2L6.7 68.3Z" fill="#9691FF"/>
</g>
<path d="M21.6001 94.701H187.5C182.6 76.201 156.5 79.501 156.5 79.501C151.7 45.301 116.3 45.501 105.7 83.701C68.1001 82.801 21.6001 94.701 21.6001 94.701Z" fill="#4976F2"/>
</svg>
