<svg width="195" height="136" viewBox="0 0 195 136" fill="none" xmlns="http://www.w3.org/2000/svg">
<path d="M148.8 54.999C157.7 45.899 164.5 48.499 166.4 60.199C171.1 59.399 175.1 59.399 175 71.899L145.7 61.399L148.8 54.999Z" fill="#3BA8CC"/>
<path d="M66.8999 56.101C67.1999 44.201 72.2999 40.001 77.5999 41.701C78.0999 30.601 88.0999 26.101 90.9999 38.201C93.8999 50.301 93.2999 56.201 93.2999 56.201L66.8999 56.101Z" fill="#3BA8CC"/>
<path d="M85.2998 55.8L90.0998 21.1H125.5V57.9L85.2998 55.8Z" fill="#7BA2FF"/>
<path d="M118.1 35.199H110.5V53.739H118.1V35.199Z" fill="#6B97FF"/>
<path d="M119.1 39.5H144.5L151.6 47.8V64.8L119.1 53.7V39.5Z" fill="#7BA2FF"/>
<path opacity="0.8" d="M45.5001 57.9H127.2L183.6 85.8L169.6 117.5L131.7 135.9L52.4001 101.9L43.1001 78.5L45.5001 57.9Z" fill="#4758A6"/>
<path opacity="0.8" d="M43.1001 78.5L99.8001 76.5L125.5 67L139.9 107.9L169.6 117.5L131.7 135.9L52.4001 101.9L43.1001 78.5Z" fill="#3F50A1"/>
<path d="M45.5 57.899L50.8 54.599L130.4 52.199L181.1 70.799L183.6 85.799L127.2 57.899H45.5Z" fill="#339BBE"/>
<path d="M93.4001 21.1C93.4001 21.1 92.2 13 101.8 11.9L108.2 0L114.3 11.6C123.5 11.6 123.7 21.1 123.7 21.1H93.4001Z" fill="#6B7FFF"/>
<path d="M127.3 39.5L135.3 30.9L142 39.5H127.3Z" fill="#6B7FFF"/>
<path d="M100.7 26.6H98V30.95H100.7V26.6Z" fill="#6B97FF"/>
<path d="M113.2 26.6H110.5V30.95H113.2V26.6Z" fill="#6B97FF"/>
<path d="M104.4 39.5H101.7V43.85H104.4V39.5Z" fill="#6B97FF"/>
<path d="M194.2 112.201H0.100098C42.1001 68.101 85.1001 87.501 98.7001 103.201C130.5 96.901 170.5 99.701 194.2 112.201Z" fill="#4976F2"/>
</svg>
