<svg width="1152" height="213" viewBox="0 0 1152 213" fill="none" xmlns="http://www.w3.org/2000/svg">
<path d="M1151.2 139.001V213.601H1000.6V84.801H1046.7L1068.3 106.301V92.301H1116.6V139.001H1151.2Z" fill="#F7E5BC"/>
<path d="M839 160H785V213H839V160Z" fill="#F7E5BC"/>
<path d="M838.5 213.6H913.2V132.63H838.5V213.6Z" fill="#F7E5BC"/>
<path d="M863 185H819V188.62H863V185Z" fill="#BED3FF"/>
<path d="M815 173.301H776L780.6 166.801H819.6L815 173.301Z" fill="#F595BA"/>
<path d="M849.6 132.6H838.5V159.45H849.6V132.6Z" fill="#FFF0DB"/>
<path d="M915.8 129.301H837.3V132.611H915.8V129.301Z" fill="#F595BA"/>
<path d="M819.8 149.399C818.81 149.383 817.83 149.59 816.93 150.006C816.03 150.421 815.23 151.034 814.6 151.799C813.47 153.158 811.98 154.165 810.3 154.699L809.1 155.099C808.55 155.252 808.07 155.579 807.73 156.03C807.39 156.481 807.2 157.033 807.2 157.599V159.499H832.5V157.599C832.48 157.037 832.29 156.493 831.95 156.045C831.61 155.597 831.14 155.266 830.6 155.099L829.4 154.699C827.72 154.165 826.23 153.158 825.1 151.799C824.45 151.032 823.64 150.419 822.72 150.004C821.8 149.589 820.81 149.382 819.8 149.399Z" fill="#BED3FF"/>
<path d="M819.8 149.399C820.96 149.399 821.9 148.459 821.9 147.299C821.9 146.139 820.96 145.199 819.8 145.199C818.64 145.199 817.7 146.139 817.7 147.299C817.7 148.459 818.64 149.399 819.8 149.399Z" fill="#BED3FF"/>
<path d="M860.5 140.699C860.92 140.699 861.33 140.868 861.63 141.168C861.93 141.468 862.1 141.875 862.1 142.299V148.399H858.9V142.299C858.9 141.875 859.07 141.468 859.37 141.168C859.67 140.868 860.08 140.699 860.5 140.699Z" fill="#F7D197"/>
<path d="M888.8 140.699C889.22 140.699 889.63 140.868 889.93 141.168C890.23 141.468 890.4 141.875 890.4 142.299V148.399H887.2V142.299C887.2 141.875 887.37 141.468 887.67 141.168C887.97 140.868 888.38 140.699 888.8 140.699Z" fill="#F7D197"/>
<path d="M878.9 194.4C879.43 194.4 879.94 194.611 880.31 194.986C880.69 195.361 880.9 195.87 880.9 196.4V202.4H876.9V196.4C876.9 195.87 877.11 195.361 877.49 194.986C877.86 194.611 878.37 194.4 878.9 194.4Z" fill="#F7D197"/>
<path d="M899.1 173.1C899.63 173.1 900.14 173.31 900.51 173.685C900.89 174.06 901.1 174.569 901.1 175.1V181.1H897.1V175.1C897.1 174.569 897.31 174.06 897.69 173.685C898.06 173.31 898.57 173.1 899.1 173.1Z" fill="#F7D197"/>
<path d="M790.6 177.801H791.2C791.65 177.801 792.08 177.98 792.4 178.299C792.72 178.618 792.9 179.05 792.9 179.501V184.101H788.9V179.501C788.9 179.05 789.08 178.618 789.4 178.299C789.72 177.98 790.15 177.801 790.6 177.801Z" fill="#F7D197"/>
<path d="M799.5 177.801H800.1C800.55 177.801 800.98 177.98 801.3 178.299C801.62 178.618 801.8 179.05 801.8 179.501V184.101H797.8V179.501C797.8 179.05 797.98 178.618 798.3 178.299C798.62 177.98 799.05 177.801 799.5 177.801Z" fill="#F7D197"/>
<path d="M808.9 177.801H809.5C809.95 177.801 810.38 177.98 810.7 178.299C811.02 178.618 811.2 179.05 811.2 179.501V184.101H807.2V179.501C807.2 179.05 807.38 178.618 807.7 178.299C808.02 177.98 808.45 177.801 808.9 177.801Z" fill="#F7D197"/>
<path d="M874.7 140.699C875.12 140.699 875.53 140.868 875.83 141.168C876.13 141.468 876.3 141.875 876.3 142.299V148.399H873.1V142.299C873.1 141.875 873.27 141.468 873.57 141.168C873.87 140.868 874.28 140.699 874.7 140.699Z" fill="#F7D197"/>
<path d="M869.7 166.801H863V213.621H869.7V166.801Z" fill="#FFF0DB"/>
<path d="M884.3 159.5H849.7V162.26H884.3V159.5Z" fill="#F5B3CC"/>
<path d="M787.2 173.301H776V203.541H787.2V173.301Z" fill="#F7E5BC"/>
<path d="M808.8 203.5H785V206.02H808.8V203.5Z" fill="#F7D197"/>
<path d="M1000.6 120.1H901.1V213.61H1000.6V120.1Z" fill="#F7E5BC"/>
<path d="M986.1 59.1H958.9V140.74H986.1V59.1Z" fill="#F7E5BC"/>
<path d="M986 59.1H965.2V120.1H986V59.1Z" fill="#F7D197"/>
<path d="M987.3 57.8H984.7C983.49 57.804 982.29 57.568 981.18 57.104C980.06 56.641 979.05 55.959 978.2 55.1L972.5 49.4L966.7 55.1C965.01 56.811 962.71 57.782 960.3 57.8H957.6C957.09 57.8 956.59 57.997 956.22 58.35C955.85 58.704 955.63 59.187 955.6 59.7C955.59 59.967 955.63 60.233 955.72 60.483C955.82 60.732 955.97 60.958 956.15 61.147C956.34 61.335 956.57 61.482 956.82 61.578C957.07 61.673 957.33 61.715 957.6 61.7H987.4C987.66 61.701 987.91 61.648 988.15 61.547C988.39 61.445 988.6 61.296 988.78 61.109C988.96 60.922 989.1 60.7 989.19 60.458C989.27 60.216 989.31 59.958 989.3 59.7C989.3 59.442 989.25 59.187 989.15 58.949C989.05 58.712 988.9 58.498 988.71 58.32C988.52 58.142 988.3 58.005 988.06 57.915C987.82 57.826 987.56 57.787 987.3 57.8Z" fill="#BED3FF"/>
<path d="M972.5 50C973.33 50 974 49.328 974 48.5C974 47.672 973.33 47 972.5 47C971.67 47 971 47.672 971 48.5C971 49.328 971.67 50 972.5 50Z" fill="#ABC5FF"/>
<path d="M1020.2 149.199H977.7V154.459H1020.2V149.199Z" fill="#BED3FF"/>
<path d="M974 192H935.6V196.03H974V192Z" fill="#F595BA"/>
<path d="M935.6 140.699H912.2V156.229H935.6V140.699Z" fill="#F7D197"/>
<path d="M952.8 131C953.33 131 953.84 131.211 954.21 131.586C954.59 131.961 954.8 132.47 954.8 133V139H950.8V133C950.8 132.47 951.01 131.961 951.39 131.586C951.76 131.211 952.27 131 952.8 131Z" fill="#F7D197"/>
<path d="M925.2 126.9C925.73 126.9 926.24 127.111 926.61 127.486C926.99 127.861 927.2 128.37 927.2 128.9V134.9H923.2V129C923.19 128.729 923.23 128.459 923.32 128.204C923.42 127.95 923.56 127.718 923.75 127.521C923.94 127.325 924.16 127.168 924.41 127.062C924.66 126.955 924.93 126.9 925.2 126.9Z" fill="#F7D197"/>
<path d="M926.1 164.801H922.2V180.371H926.1V164.801Z" fill="#FFF0DB"/>
<path d="M1016.3 180.4H1010.9V188.51H1016.3V180.4Z" fill="#F7D197"/>
<path d="M1037.5 120.1H1032.1V128.21H1037.5V120.1Z" fill="#F7D197"/>
<path d="M1092.1 98H1086.7V106.11H1092.1V98Z" fill="#F7D197"/>
<path d="M1083.4 150.4H1078V158.51H1083.4V150.4Z" fill="#F7D197"/>
<path d="M1151.2 139H1101.6V143.1H1151.2V139Z" fill="#F5B3CC"/>
<path d="M89.8 60H0V214.21H89.8V60Z" fill="#FFF0DB"/>
<path d="M79.6001 214.201H145.2V36.091H79.6001V214.201Z" fill="#FFF0DB"/>
<path d="M74.7002 189.5H106.5V140.19H74.7002V189.5Z" fill="#F7E5BC"/>
<path d="M187.7 132.4H145.2V140.1H187.7V132.4Z" fill="#F7E5BC"/>
<path d="M160.6 132.401H121.7L110 115.201H148.1L160.6 132.401Z" fill="#F595BA"/>
<path d="M195.1 140.1H144V214.18H195.1V140.1Z" fill="#FFF0DB"/>
<path d="M182.1 150.201C183.002 150.201 183.867 150.559 184.504 151.197C185.142 151.835 185.5 152.699 185.5 153.601V162.601H178.7V153.601C178.7 152.699 179.058 151.835 179.696 151.197C180.334 150.559 181.198 150.201 182.1 150.201Z" fill="#FFD191"/>
<path d="M166.4 150.201C167.302 150.201 168.167 150.559 168.804 151.197C169.442 151.835 169.8 152.699 169.8 153.601V162.601H163V153.601C163 152.699 163.358 151.835 163.996 151.197C164.633 150.559 165.498 150.201 166.4 150.201Z" fill="#FFD191"/>
<path d="M150.7 150.201C151.602 150.201 152.466 150.559 153.104 151.197C153.742 151.835 154.1 152.699 154.1 153.601V162.601H147.3V153.601C147.3 152.699 147.658 151.835 148.296 151.197C148.933 150.559 149.798 150.201 150.7 150.201Z" fill="#FFD191"/>
<path d="M61.0001 120.201C61.4461 120.201 61.8881 120.289 62.3011 120.46C62.7131 120.631 63.0881 120.881 63.4041 121.197C63.7191 121.513 63.9701 121.888 64.1411 122.3C64.3121 122.713 64.4001 123.155 64.4001 123.601V132.601H57.6001V123.601C57.6001 123.155 57.6881 122.713 57.8581 122.3C58.0291 121.888 58.2801 121.513 58.5951 121.197C58.9111 120.881 59.2861 120.631 59.6981 120.46C60.1111 120.289 60.5531 120.201 61.0001 120.201Z" fill="#F7E5BC"/>
<path d="M61.0001 158.301C61.4461 158.301 61.8881 158.389 62.3011 158.56C62.7131 158.73 63.0881 158.981 63.4041 159.297C63.7191 159.612 63.9701 159.987 64.1411 160.4C64.3121 160.812 64.4001 161.254 64.4001 161.701V170.701H57.6001V161.701C57.6001 160.799 57.9581 159.934 58.5951 159.297C59.2331 158.659 60.0981 158.301 61.0001 158.301Z" fill="#F7E5BC"/>
<path d="M138.8 45.6H133.4V55.44H138.8V45.6Z" fill="#FFD191"/>
<path d="M119.2 45.6H113.8V55.44H119.2V45.6Z" fill="#FFD191"/>
<path d="M150.6 175.5H112.3V179.47H150.6V175.5Z" fill="#BED3FF"/>
<path d="M147.7 26.7H141.4C135.623 26.681 130.088 24.38 126 20.3L112.3 6.59998L98.7 20.3C94.612 24.38 89.076 26.681 83.3 26.7H77C75.76 26.671 74.557 27.124 73.644 27.963C72.73 28.802 72.1769 29.962 72.0999 31.2C72.0729 31.833 72.175 32.466 72.399 33.06C72.623 33.653 72.965 34.195 73.404 34.653C73.843 35.111 74.37 35.475 74.954 35.724C75.538 35.972 76.166 36.1 76.8 36.1H147.9C148.534 36.1 149.162 35.972 149.746 35.724C150.33 35.475 150.857 35.111 151.296 34.653C151.735 34.195 152.077 33.653 152.301 33.06C152.525 32.466 152.627 31.833 152.6 31.2C152.523 29.962 151.969 28.802 151.056 27.963C150.143 27.124 148.94 26.671 147.7 26.7Z" fill="#BED3FF"/>
<path d="M97.4 60H0V65.46H97.4V60Z" fill="#F595BA"/>
<path d="M68.6998 149.1H53.2998V151.35H68.6998V149.1Z" fill="#BED3FF"/>
<path d="M110 115.201V132.601H121.7L110 115.201Z" fill="#F7E5BC"/>
<path d="M112.3 6.59998L98.6998 20.3C94.6108 24.38 89.0758 26.681 83.2998 26.7H107.8L112.3 6.59998Z" fill="#ABC5FF"/>
<path d="M112.3 8.39999C114.343 8.39999 116 6.74301 116 4.70001C116 2.65701 114.343 1 112.3 1C110.256 1 108.6 2.65701 108.6 4.70001C108.6 6.74301 110.256 8.39999 112.3 8.39999Z" fill="#ABC5FF"/>
<path d="M112.3 1C111.771 0.978002 111.248 1.117 110.8 1.4C110.657 2.053 110.692 2.732 110.904 3.366C111.115 4 111.494 4.565 112 5C112.452 5.515 113.034 5.89799 113.685 6.10999C114.337 6.32099 115.033 6.35201 115.7 6.20001C115.904 5.72701 116.006 5.21601 116 4.70001C116.014 4.21101 115.928 3.72301 115.747 3.26801C115.566 2.81301 115.294 2.40001 114.947 2.05301C114.601 1.70701 114.188 1.435 113.732 1.254C113.277 1.073 112.79 0.987002 112.3 1Z" fill="#BED3FF"/>
<path d="M121.7 132.401H160.6L158.7 129.801H120L121.7 132.401Z" fill="#F08DB4"/>
<path d="M115.9 123.801H154.4L152.5 121.301H114.2L115.9 123.801Z" fill="#F08DB4"/>
<path d="M185.5 187.301H141.9V213.211H185.5V187.301Z" fill="#F7E5BC"/>
<path d="M126.6 193.301C127.422 193.301 128.21 193.627 128.792 194.209C129.373 194.79 129.7 195.579 129.7 196.401V203.101H123.6V196.401C123.599 195.596 123.912 194.822 124.472 194.243C125.032 193.665 125.795 193.327 126.6 193.301Z" fill="#F7E5BC"/>
<path d="M106.5 189.4H59.2002V193.26H106.5V189.4Z" fill="#F595BA"/>
<path d="M86.3001 108.5C87.2811 108.5 88.2221 108.89 88.9161 109.584C89.6101 110.278 90.0001 111.219 90.0001 112.2V118.3H82.6001V112.2C82.6001 111.219 82.9891 110.278 83.6831 109.584C84.3771 108.89 85.3181 108.5 86.3001 108.5Z" fill="#F7E5BC"/>
<path d="M40.1001 82.9C40.7631 82.9 41.3991 83.164 41.8671 83.633C42.3361 84.101 42.6001 84.737 42.6001 85.4V92.6H37.6001V85.3C37.6251 84.655 37.9001 84.044 38.3661 83.597C38.8321 83.149 39.4541 82.9 40.1001 82.9Z" fill="#F7E5BC"/>
</svg>
