<svg width="101" height="80" viewBox="0 0 101 80" fill="none" xmlns="http://www.w3.org/2000/svg">
<path d="M58.706 2.18501C58.806 1.53001 57.427 0.776009 55.625 0.500009C53.823 0.224009 52.282 0.532006 52.182 1.18701C52.081 1.84201 53.46 2.597 55.262 2.872C57.064 3.148 58.605 2.84001 58.706 2.18501Z" fill="#823D68"/>
<path d="M9.09894 66.501L6.49896 66.301L3.89893 79.201C8.79893 79.201 9.39891 73.201 11.6989 72.801L9.09894 66.501Z" fill="#73375D"/>
<path d="M34.9 19.301H33V57.201H34.9V19.301Z" fill="#823D68"/>
<path d="M77.7001 28.4H75.8V53.38H77.7001V28.4Z" fill="#823D68"/>
<path d="M56.9993 2H54.6992V55.11H56.9993V2Z" fill="#823D68"/>
<path d="M46.7998 47.301L48.5998 36.101C49.4998 30.092 49.3988 23.976 48.2998 18.001L46.7998 9.80103L63.6998 17.201L65.2998 24.001C67.4778 33.402 68.1198 43.094 67.1998 52.701L46.7998 47.301Z" fill="#BED3FF"/>
<path d="M70.699 53.401V27.701L91.499 51.101L70.699 53.401Z" fill="#BED3FF"/>
<path d="M23.6001 50.4L42.4001 54.1V15.5L23.6001 50.4Z" fill="#BED3FF"/>
<path d="M14.5001 53.4L100.5 48V49.4L82.0001 54.2L67.2001 66.5C59.5051 72.823 49.8591 76.285 39.9001 76.3H17.1001C15.5231 76.289 13.9761 75.868 12.6101 75.078C11.2451 74.288 10.1081 73.158 9.31109 71.796C8.51509 70.435 8.08609 68.89 8.06609 67.313C8.04709 65.736 8.43713 64.181 9.20013 62.8L14.5001 53.4Z" fill="#924D79"/>
<path d="M71.4001 63L10.5001 60.6L9.20013 62.8C8.43713 64.18 8.04709 65.735 8.06609 67.312C8.08609 68.89 8.51509 70.435 9.31109 71.796C10.1081 73.157 11.2451 74.288 12.6101 75.078C13.9761 75.867 15.5231 76.288 17.1001 76.3H39.9001C49.8591 76.285 59.5051 72.822 67.2001 66.5L71.4001 63Z" fill="#87416D"/>
<path d="M67.2001 66.5L69.0001 65L8.6001 70.2C9.2041 71.976 10.3481 73.518 11.8721 74.612C13.3961 75.706 15.2241 76.296 17.1001 76.3H39.9001C49.8591 76.285 59.5051 72.823 67.2001 66.5Z" fill="#823D68"/>
<path d="M27.999 61.301L21.299 70.701C20.917 71.25 20.409 71.7 19.817 72.013C19.226 72.326 18.568 72.493 17.899 72.501H15.899C15.8 72.506 15.702 72.488 15.612 72.446C15.522 72.404 15.444 72.341 15.385 72.262C15.325 72.183 15.286 72.09 15.271 71.992C15.257 71.894 15.266 71.794 15.299 71.701L18.899 61.301H27.999Z" fill="#73375D"/>
<path d="M13.5992 61.301C13.0332 61.376 12.5182 61.668 12.1642 62.116C11.8092 62.564 11.6431 63.132 11.6991 63.701C11.6721 63.977 11.6992 64.256 11.7802 64.521C11.8612 64.786 11.9931 65.033 12.1701 65.247C12.3471 65.461 12.5642 65.637 12.8092 65.767C13.0552 65.896 13.3232 65.976 13.5992 66.001H17.9992V61.301H13.5992Z" fill="#AB9746"/>
<path d="M17.9993 66C19.2703 66 20.2993 64.971 20.2993 63.7C20.2993 62.43 19.2703 61.4 17.9993 61.4C16.7293 61.4 15.6992 62.43 15.6992 63.7C15.6992 64.971 16.7293 66 17.9993 66Z" fill="#AB9746"/>
<path d="M32.6 63.401H0V60.401L28 59.201L32.6 63.401Z" fill="#C9BE90"/>
<path d="M0 61.101L28 59.201L0 60.401V61.101Z" fill="#E8DBA6"/>
<path d="M19.1632 57.21C19.3842 56.644 19.2711 56.072 18.9101 55.931C18.5501 55.791 18.0791 56.136 17.8591 56.702C17.6381 57.268 17.7512 57.84 18.1112 57.981C18.4712 58.121 18.9422 57.776 19.1632 57.21Z" fill="#87416D"/>
<path d="M26.2759 56.714C26.4969 56.148 26.3839 55.576 26.0239 55.435C25.6629 55.295 25.1929 55.64 24.9719 56.206C24.7509 56.772 24.8639 57.344 25.2239 57.485C25.5849 57.625 26.0559 57.28 26.2759 56.714Z" fill="#87416D"/>
<path d="M33.9141 56.021C34.1351 55.455 34.0211 54.882 33.6611 54.742C33.3011 54.601 32.8301 54.946 32.6101 55.512C32.3891 56.078 32.5021 56.651 32.8621 56.791C33.2221 56.932 33.6931 56.587 33.9141 56.021Z" fill="#87416D"/>
<path d="M41.6809 55.574C41.9019 55.008 41.7889 54.435 41.4289 54.294C41.0689 54.154 40.5979 54.499 40.3769 55.065C40.1559 55.631 40.2699 56.204 40.6299 56.344C40.9899 56.485 41.4609 56.14 41.6809 55.574Z" fill="#87416D"/>
<path d="M50.067 55.066C50.288 54.5 50.1749 53.927 49.8149 53.787C49.4539 53.646 48.9839 53.991 48.7629 54.557C48.5419 55.123 48.655 55.696 49.015 55.836C49.376 55.977 49.847 55.632 50.067 55.066Z" fill="#87416D"/>
<path d="M59.3802 54.519C59.6002 53.953 59.4872 53.38 59.1272 53.24C58.7672 53.099 58.2962 53.444 58.0752 54.01C57.8552 54.576 57.9682 55.149 58.3282 55.289C58.6882 55.43 59.1592 55.085 59.3802 54.519Z" fill="#87416D"/>
<path d="M66.4993 17.1L43.1992 7.29997V6.09998L66.4993 15.9V17.1Z" fill="#823D68"/>
<path d="M65.2998 24.001L63.6998 17.201L46.7998 9.80103L48.2998 18.001C48.3998 18.701 48.5998 19.501 48.6998 20.201L65.6998 26.001C65.5998 25.401 65.3998 24.701 65.2998 24.001Z" fill="#DEE9FF"/>
<path d="M14.799 20.701L16.5989 20.001C16.6989 19.901 16.6989 19.901 16.5989 19.901L14.799 19.101L13.999 17.301L13.1989 19.101L11.3989 19.901L13.1989 20.601L13.999 22.301L14.799 20.601V20.701Z" fill="#194DF2"/>
<path d="M79.299 67.101L81.099 66.301L79.299 65.501L78.499 63.701H78.399L77.599 65.501L75.899 66.301C75.799 66.301 75.799 66.401 75.899 66.401L77.599 67.201L78.399 69.001H78.499L79.299 67.201V67.101Z" fill="#FF7ABC"/>
</svg>
